<?xml version="1.0" encoding="UTF-8"?>
<!DOCTYPE svg PUBLIC "-//W3C//DTD SVG 1.1//EN" "http://www.w3.org/Graphics/SVG/1.1/DTD/svg11.dtd">
<!-- Creator: CorelDRAW -->
<svg xmlns="http://www.w3.org/2000/svg" xml:space="preserve" width="2048px" height="2048px" style="shape-rendering:geometricPrecision; text-rendering:geometricPrecision; image-rendering:optimizeQuality; fill-rule:evenodd; clip-rule:evenodd"
viewBox="0 0 2048 2048"
 xmlns:xlink="http://www.w3.org/1999/xlink">
 <defs>
  <style type="text/css">
   <![CDATA[
    .fil2 {fill:none}
    .fil0 {fill:#212121;fill-rule:nonzero}
    .fil1 {fill:#66BB6A;fill-rule:nonzero}
   ]]>
  </style>
 </defs>
 <g id="Layer_x0020_1">
  <metadata id="CorelCorpID_0Corel-Layer"/>
  <path class="fil0" d="M435.304 1728l1177.41 0c-12.7795,-34.6855 -33.411,-65.5619 -59.7213,-90.4631 -35.4296,-33.5303 -81.1855,-56.2949 -131.956,-63.0095l-12.3744 -4.37481 -97.7103 -59.2146 -0.00472441 0.00826772c-4.92756,-2.45906 -9.69804,-4.4752 -14.2571,-6.00237 -4.81418,-1.61221 -9.75119,-2.89843 -14.7721,-3.81969l-20.2748 -3.72402 -4.97599 -19.9004c-9.04843,-36.1819 -30.0484,-67.6288 -58.5213,-89.8607 -27.7866,-21.6957 -62.8418,-34.6335 -100.986,-34.6335 -25.0666,0 -49.2166,5.65158 -70.8556,16.0169 -21.9685,10.5236 -41.5784,25.924 -57.1689,45.2268l-9.29646 11.5099 -14.8288 0.366142c-44.3327,1.0937 -86.3859,14.6209 -122.228,37.6087 -36.2965,23.2784 -66.1123,56.152 -85.3808,95.5418l-10.741 21.9567 -23.8843 -4.5815c-7.71615,-1.47992 -15.0142,-2.54055 -21.8894,-3.18544 -6.67796,-0.627166 -14.2441,-0.937796 -22.6725,-0.937796 -57.4654,0 -110.197,20.4933 -151.278,54.5469 -32.0233,26.5441 -56.9882,61.2768 -71.6327,100.925zm1219.25 64.0016l-1261.12 0 -38.5158 0 7.14095 -37.8756c13.2862,-70.4741 51.0756,-132.333 104.119,-176.301 52.1918,-43.2638 119.13,-69.2989 192.028,-69.2989 8.70591,0 18.1772,0.477166 28.4221,1.43858 1.59567,0.15 3.17717,0.309449 4.74449,0.478347 24.1878,-40.9264 57.5705,-75.2351 96.9013,-100.459 41.4614,-26.5914 89.6387,-43.1811 140.737,-46.9016 19.8284,-21.5339 43.5721,-39.0048 69.7843,-51.5611 30.4229,-14.5736 63.9591,-22.5177 98.3564,-22.5177 52.7197,0 101.417,18.0744 140.236,48.3839 34.5425,26.9693 61.1504,63.6189 75.6922,105.815 1.29095,0.399213 2.57599,0.812599 3.85276,1.24016 8.10709,2.71654 15.6225,5.81693 22.5059,9.25276l2.25 1.3748 94.356 57.1819c61.689,9.59174 117.271,37.9441 160.69,79.0347 45.215,42.7902 77.2205,99.3355 89.1898,162.839l7.13859 37.8756 -38.5134 0z"/>
  <path class="fil1" d="M1085.67 1257.26c28.428,-88.128 44.0303,-175.177 44.9221,-260.979 1.06181,-102.254 -18.7665,-203.279 -62.6812,-302.877l58.5 -25.7504c47.6008,107.958 69.0898,217.751 67.9323,329.129 -0.914174,87.9816 -15.9638,176.621 -43.4268,265.834 -17.5417,-3.71339 -35.5418,-5.61733 -53.7556,-5.61733 -3.83622,0 -7.66654,0.0885827 -11.491,0.261024z"/>
  <path class="fil1" d="M903.796 258.749c189.069,83.7745 266.987,179.871 282.231,261.103 15.1228,80.5831 -28.6394,146.338 -90.0721,176.83 -61.2473,30.3992 -140.244,25.6595 -195.884,-34.5839 -56.2193,-60.8717 -86.6942,-180.538 -40.2756,-381.225l8.73308 -37.7516 35.2677 15.6272zm219.481 272.853c-10.9524,-58.3642 -69.267,-129.134 -209.433,-197.692 -29.1024,152.398 -7.18111,241.185 33.228,284.939 33.9626,36.7737 82.6678,39.4264 120.633,20.5831 37.7835,-18.7536 64.7575,-58.8863 55.5721,-107.83z"/>
  <path class="fil1" d="M1640.33 738.212c-147.033,145.317 -264.907,182.708 -346.048,167.217 -80.5843,-15.3851 -125.815,-80.1343 -131.741,-148.432 -5.90906,-68.119 27.411,-139.928 103.893,-169.727 77.2099,-30.0803 199.725,-14.7177 369.521,101.816l31.917 21.9059 -27.5421 27.2197zm-334.048 104.467c58.3512,11.1402 145.551,-17.2606 260.596,-122.637 -131.265,-82.832 -221.945,-94.8934 -277.444,-73.2721 -46.5709,18.1453 -66.8067,62.4993 -63.143,104.728 3.64843,42.0544 31.1244,81.8516 79.9902,91.1812z"/>
  <path class="fil1" d="M720.503 931.5c141.447,65.8855 233.199,66.7099 285.542,38.4969 43.839,-23.6292 58.0808,-69.8859 48.8989,-111.112 -9.19725,-41.2937 -41.8677,-77.4367 -91.8213,-80.7284 -59.504,-3.92008 -142.399,34.8603 -242.62,153.344zm315.793 94.7481c-72.6745,39.1713 -196.314,38.9634 -380.301,-55.3819l-34.3736 -17.6256 23.7484 -30.3744c126.936,-162.343 239.127,-213.905 321.753,-208.461 81.828,5.39292 135.191,63.9095 150.073,130.729 14.8973,66.8894 -8.72835,142.214 -80.8997,181.114z"/>
 </g>
 <rect class="fil2" width="2048" height="2048"/>
</svg>
